<svg xmlns="http://www.w3.org/2000/svg" width="165" height="165"><g transform="translate(-5754 -14215)" opacity=".2"><circle cx="1.5" cy="1.5" r="1.5" transform="translate(5754 14215)"/><circle cx="1.5" cy="1.5" r="1.5" transform="translate(5772 14215)"/><circle cx="1.5" cy="1.5" r="1.5" transform="translate(5790 14215)"/><circle cx="1.5" cy="1.5" r="1.5" transform="translate(5808 14215)"/><circle cx="1.5" cy="1.5" r="1.5" transform="translate(5826 14215)"/><circle cx="1.5" cy="1.5" r="1.5" transform="translate(5844 14215)"/><circle cx="1.5" cy="1.5" r="1.5" transform="translate(5862 14215)"/><circle cx="1.5" cy="1.5" r="1.5" transform="translate(5880 14215)"/><circle cx="1.5" cy="1.5" r="1.5" transform="translate(5898 14215)"/><circle cx="1.5" cy="1.5" r="1.5" transform="translate(5916 14215)"/><circle cx="1.5" cy="1.5" r="1.5" transform="translate(5754 14233)"/><circle cx="1.5" cy="1.5" r="1.5" transform="translate(5772 14233)"/><circle cx="1.5" cy="1.5" r="1.5" transform="translate(5790 14233)"/><circle cx="1.5" cy="1.5" r="1.5" transform="translate(5808 14233)"/><circle cx="1.5" cy="1.5" r="1.5" transform="translate(5826 14233)"/><circle cx="1.5" cy="1.5" r="1.5" transform="translate(5844 14233)"/><circle cx="1.5" cy="1.5" r="1.5" transform="translate(5862 14233)"/><circle cx="1.5" cy="1.5" r="1.5" transform="translate(5880 14233)"/><circle cx="1.5" cy="1.5" r="1.5" transform="translate(5898 14233)"/><circle cx="1.5" cy="1.5" r="1.5" transform="translate(5916 14233)"/><circle cx="1.5" cy="1.5" r="1.5" transform="translate(5754 14251)"/><circle cx="1.5" cy="1.5" r="1.5" transform="translate(5772 14251)"/><circle cx="1.5" cy="1.5" r="1.5" transform="translate(5790 14251)"/><circle cx="1.5" cy="1.5" r="1.5" transform="translate(5808 14251)"/><circle cx="1.5" cy="1.5" r="1.5" transform="translate(5826 14251)"/><circle cx="1.5" cy="1.5" r="1.5" transform="translate(5844 14251)"/><circle cx="1.5" cy="1.5" r="1.5" transform="translate(5862 14251)"/><circle cx="1.5" cy="1.5" r="1.5" transform="translate(5880 14251)"/><circle cx="1.5" cy="1.5" r="1.5" transform="translate(5898 14251)"/><circle cx="1.5" cy="1.5" r="1.5" transform="translate(5916 14251)"/><circle cx="1.5" cy="1.5" r="1.5" transform="translate(5754 14269)"/><circle cx="1.5" cy="1.5" r="1.5" transform="translate(5772 14269)"/><circle cx="1.5" cy="1.5" r="1.5" transform="translate(5790 14269)"/><circle cx="1.5" cy="1.5" r="1.5" transform="translate(5808 14269)"/><circle cx="1.5" cy="1.5" r="1.5" transform="translate(5826 14269)"/><circle cx="1.5" cy="1.5" r="1.5" transform="translate(5844 14269)"/><circle cx="1.5" cy="1.5" r="1.5" transform="translate(5862 14269)"/><circle cx="1.5" cy="1.5" r="1.5" transform="translate(5880 14269)"/><circle cx="1.5" cy="1.5" r="1.5" transform="translate(5898 14269)"/><circle cx="1.5" cy="1.5" r="1.5" transform="translate(5916 14269)"/><circle cx="1.5" cy="1.5" r="1.5" transform="translate(5754 14287)"/><circle cx="1.5" cy="1.5" r="1.5" transform="translate(5772 14287)"/><circle cx="1.5" cy="1.5" r="1.5" transform="translate(5790 14287)"/><circle cx="1.5" cy="1.5" r="1.5" transform="translate(5808 14287)"/><circle cx="1.5" cy="1.5" r="1.5" transform="translate(5826 14287)"/><circle cx="1.5" cy="1.5" r="1.5" transform="translate(5844 14287)"/><circle cx="1.5" cy="1.5" r="1.5" transform="translate(5862 14287)"/><circle cx="1.5" cy="1.5" r="1.5" transform="translate(5880 14287)"/><circle cx="1.5" cy="1.5" r="1.5" transform="translate(5898 14287)"/><circle cx="1.5" cy="1.5" r="1.5" transform="translate(5916 14287)"/><circle cx="1.5" cy="1.5" r="1.5" transform="translate(5754 14305)"/><circle cx="1.5" cy="1.5" r="1.5" transform="translate(5772 14305)"/><circle cx="1.5" cy="1.5" r="1.5" transform="translate(5790 14305)"/><circle cx="1.5" cy="1.5" r="1.5" transform="translate(5808 14305)"/><circle cx="1.5" cy="1.5" r="1.5" transform="translate(5826 14305)"/><circle cx="1.5" cy="1.5" r="1.5" transform="translate(5844 14305)"/><circle cx="1.5" cy="1.5" r="1.5" transform="translate(5862 14305)"/><circle cx="1.5" cy="1.5" r="1.5" transform="translate(5880 14305)"/><circle cx="1.5" cy="1.5" r="1.5" transform="translate(5898 14305)"/><circle cx="1.5" cy="1.5" r="1.5" transform="translate(5916 14305)"/><circle cx="1.5" cy="1.5" r="1.5" transform="translate(5754 14323)"/><circle cx="1.5" cy="1.5" r="1.5" transform="translate(5772 14323)"/><circle cx="1.5" cy="1.5" r="1.5" transform="translate(5790 14323)"/><circle cx="1.5" cy="1.5" r="1.5" transform="translate(5808 14323)"/><circle cx="1.5" cy="1.5" r="1.5" transform="translate(5826 14323)"/><circle cx="1.5" cy="1.5" r="1.5" transform="translate(5844 14323)"/><circle cx="1.5" cy="1.5" r="1.5" transform="translate(5862 14323)"/><circle cx="1.5" cy="1.5" r="1.5" transform="translate(5880 14323)"/><circle cx="1.5" cy="1.5" r="1.5" transform="translate(5898 14323)"/><circle cx="1.5" cy="1.5" r="1.5" transform="translate(5916 14323)"/><circle cx="1.5" cy="1.5" r="1.5" transform="translate(5754 14341)"/><circle cx="1.5" cy="1.5" r="1.5" transform="translate(5772 14341)"/><circle cx="1.5" cy="1.5" r="1.5" transform="translate(5790 14341)"/><circle cx="1.5" cy="1.5" r="1.5" transform="translate(5808 14341)"/><circle cx="1.5" cy="1.5" r="1.5" transform="translate(5826 14341)"/><circle cx="1.5" cy="1.5" r="1.5" transform="translate(5844 14341)"/><circle cx="1.5" cy="1.5" r="1.5" transform="translate(5862 14341)"/><circle cx="1.5" cy="1.5" r="1.5" transform="translate(5880 14341)"/><circle cx="1.5" cy="1.5" r="1.5" transform="translate(5898 14341)"/><circle cx="1.5" cy="1.5" r="1.5" transform="translate(5916 14341)"/><circle cx="1.5" cy="1.5" r="1.5" transform="translate(5754 14359)"/><circle cx="1.5" cy="1.5" r="1.5" transform="translate(5772 14359)"/><circle cx="1.5" cy="1.5" r="1.5" transform="translate(5790 14359)"/><circle cx="1.5" cy="1.5" r="1.5" transform="translate(5808 14359)"/><circle cx="1.5" cy="1.5" r="1.5" transform="translate(5826 14359)"/><circle cx="1.5" cy="1.5" r="1.5" transform="translate(5844 14359)"/><circle cx="1.5" cy="1.5" r="1.5" transform="translate(5862 14359)"/><circle cx="1.5" cy="1.5" r="1.5" transform="translate(5880 14359)"/><circle cx="1.5" cy="1.5" r="1.5" transform="translate(5898 14359)"/><circle cx="1.5" cy="1.5" r="1.5" transform="translate(5916 14359)"/><circle cx="1.5" cy="1.5" r="1.5" transform="translate(5754 14377)"/><circle cx="1.5" cy="1.5" r="1.5" transform="translate(5772 14377)"/><circle cx="1.5" cy="1.5" r="1.5" transform="translate(5790 14377)"/><circle cx="1.5" cy="1.5" r="1.5" transform="translate(5808 14377)"/><circle cx="1.5" cy="1.5" r="1.5" transform="translate(5826 14377)"/><circle cx="1.5" cy="1.5" r="1.5" transform="translate(5844 14377)"/><circle cx="1.5" cy="1.5" r="1.5" transform="translate(5862 14377)"/><circle cx="1.5" cy="1.5" r="1.5" transform="translate(5880 14377)"/><circle cx="1.5" cy="1.5" r="1.5" transform="translate(5898 14377)"/><circle cx="1.5" cy="1.5" r="1.5" transform="translate(5916 14377)"/></g></svg>